<svg width="179" height="194" viewBox="0 0 179 194" fill="none" xmlns="http://www.w3.org/2000/svg">
<path d="M1.51886 29.9854C1.04675 30.2719 0.431702 30.1215 0.145142 29.6494C-0.141434 29.1773 0.00898743 28.5622 0.48111 28.2757L1.51886 29.9854ZM177 106.291L176.007 106.172L177 106.291ZM95 193.131L99.8848 182.668L106.504 192.129L95 193.131ZM99.4949 188.767C99.9606 188.47 100.579 188.607 100.876 189.073C101.173 189.538 101.036 190.157 100.57 190.454L99.4949 188.767ZM110.979 183.889C110.513 184.187 109.895 184.05 109.598 183.585C109.3 183.119 109.437 182.501 109.902 182.204L110.979 183.889ZM120.156 175.441C120.611 175.129 121.234 175.246 121.546 175.702C121.857 176.158 121.741 176.78 121.285 177.092L120.156 175.441ZM131.343 169.899C130.901 170.231 130.274 170.141 129.943 169.699C129.611 169.257 129.701 168.631 130.143 168.299L131.343 169.899ZM139.761 160.684C140.184 160.329 140.815 160.384 141.17 160.807C141.525 161.23 141.469 161.861 141.046 162.216L139.761 160.684ZM150.263 153.945C149.865 154.328 149.232 154.317 148.849 153.919C148.466 153.522 148.477 152.889 148.875 152.505L150.263 153.945ZM157.306 143.651C157.668 143.234 158.3 143.189 158.717 143.551C159.134 143.913 159.179 144.545 158.817 144.962L157.306 143.651ZM166.423 135.139C166.112 135.595 165.49 135.713 165.033 135.403C164.577 135.092 164.459 134.47 164.77 134.013L166.423 135.139ZM170.845 123.49C171.081 122.991 171.678 122.778 172.177 123.014C172.676 123.25 172.889 123.847 172.653 124.346L170.845 123.49ZM176.871 112.582C176.74 113.119 176.2 113.448 175.663 113.318C175.126 113.188 174.797 112.647 174.927 112.11L176.871 112.582ZM176.565 100.017C176.599 99.4653 177.074 99.0458 177.625 99.0797C178.176 99.1135 178.596 99.5878 178.562 100.139L176.565 100.017ZM178.592 87.5521C178.624 88.1035 178.202 88.5759 177.651 88.6073C177.099 88.6387 176.627 88.2172 176.595 87.6658L178.592 87.5521ZM175.152 75.4058C175.054 74.8623 175.416 74.3423 175.959 74.2445C176.503 74.1467 177.023 74.508 177.121 75.0515L175.152 75.4058ZM174.124 62.8243C174.289 63.3514 173.996 63.9124 173.469 64.0773C172.942 64.2423 172.381 63.9488 172.216 63.4217L174.124 62.8243ZM167.778 51.9155C167.546 51.4144 167.764 50.82 168.265 50.5878C168.766 50.3557 169.361 50.5738 169.593 51.0749L167.778 51.9155ZM163.536 40.028C163.834 40.4929 163.699 41.1115 163.234 41.4096C162.769 41.7078 162.151 41.5726 161.853 41.1077L163.536 40.028ZM154.485 31.234C154.123 30.8162 154.169 30.1847 154.587 29.8235C155.005 29.4623 155.636 29.5082 155.998 29.926L154.485 31.234ZM147.073 21.0184C147.491 21.3785 147.539 22.0099 147.179 22.4286C146.819 22.8473 146.187 22.8949 145.768 22.5347L147.073 21.0184ZM135.862 15.2312C135.394 14.9377 135.253 14.3205 135.546 13.8526C135.84 13.3848 136.457 13.2434 136.925 13.5369L135.862 15.2312ZM125.78 7.65449C126.286 7.87547 126.517 8.46493 126.296 8.97108C126.075 9.47722 125.486 9.70839 124.98 9.48741L125.78 7.65449ZM113.37 5.38586C112.837 5.23916 112.524 4.68861 112.671 4.15616C112.818 3.62372 113.368 3.31101 113.901 3.4577L113.37 5.38586ZM101.543 0.937337C102.091 1.01188 102.474 1.51592 102.399 2.06315C102.325 2.61038 101.821 2.99358 101.274 2.91904L101.543 0.937337ZM88.9854 2.01101C88.4331 2.00312 87.9918 1.54906 87.9997 0.996835C88.0076 0.444607 88.4617 0.00332779 89.0139 0.011211L88.9854 2.01101ZM76.4426 0.527439C76.9924 0.475481 77.4803 0.87909 77.5322 1.42893C77.5842 1.97876 77.1806 2.46661 76.6308 2.51857L76.4426 0.527439ZM64.4068 4.2795C63.8645 4.38374 63.3403 4.02858 63.2361 3.48622C63.1318 2.94386 63.487 2.41969 64.0293 2.31545L64.4068 4.2795ZM51.782 5.22236C52.3136 5.07272 52.8659 5.38239 53.0155 5.91402C53.1652 6.44564 52.8555 6.99792 52.3239 7.14755L51.782 5.22236ZM40.5451 10.948C40.026 11.1365 39.4523 10.8684 39.2639 10.3493C39.0754 9.83017 39.3434 9.25654 39.8626 9.06808L40.5451 10.948ZM28.2527 13.7244C28.7585 13.5026 29.3483 13.7328 29.5701 14.2386C29.7919 14.7444 29.5617 15.3343 29.0559 15.5561L28.2527 13.7244ZM17.8488 20.8676C17.3566 21.118 16.7545 20.9221 16.504 20.4299C16.2535 19.9377 16.4495 19.3356 16.9417 19.0851L17.8488 20.8676ZM5.93811 25.0505C6.41689 24.7752 7.02818 24.9401 7.30348 25.4189C7.57877 25.8977 7.4138 26.509 6.93503 26.7843L5.93811 25.0505ZM109.902 182.204C113.047 180.195 116.51 177.935 120.156 175.441L121.285 177.092C117.617 179.601 114.135 181.873 110.979 183.889L109.902 182.204ZM130.143 168.299C133.335 165.906 136.566 163.364 139.761 160.684L141.046 162.216C137.82 164.923 134.559 167.487 131.343 169.899L130.143 168.299ZM148.875 152.505C151.815 149.669 154.649 146.715 157.306 143.651L158.817 144.962C156.116 148.076 153.24 151.073 150.263 153.945L148.875 152.505ZM164.77 134.013C167.088 130.607 169.139 127.096 170.845 123.49L172.653 124.346C170.897 128.057 168.792 131.658 166.423 135.139L164.77 134.013ZM174.927 112.11C175.403 110.153 175.766 108.173 176.007 106.172L177.993 106.41C177.742 108.493 177.365 110.551 176.871 112.582L174.927 112.11ZM176.007 106.172C176.254 104.117 176.44 102.064 176.565 100.017L178.562 100.139C178.434 102.226 178.244 104.317 177.993 106.41L176.007 106.172ZM176.595 87.6658C176.36 83.5244 175.876 79.4291 175.152 75.4058L177.121 75.0515C177.859 79.1549 178.352 83.3306 178.592 87.5521L176.595 87.6658ZM172.216 63.4217C170.98 59.4737 169.498 55.6291 167.778 51.9155L169.593 51.0749C171.35 54.8687 172.863 58.7947 174.124 62.8243L172.216 63.4217ZM161.853 41.1077C159.631 37.644 157.173 34.3432 154.485 31.234L155.998 29.926C158.749 33.1086 161.264 36.4858 163.536 40.028L161.853 41.1077ZM145.768 22.5347C142.68 19.8785 139.375 17.4348 135.862 15.2312L136.925 13.5369C140.524 15.7943 143.909 18.2976 147.073 21.0184L145.768 22.5347ZM124.98 9.48741C121.289 7.87584 117.417 6.5009 113.37 5.38586L113.901 3.4577C118.039 4.59786 122.001 6.00454 125.78 7.65449L124.98 9.48741ZM101.274 2.91904C97.3158 2.37995 93.2184 2.07143 88.9854 2.01101L89.0139 0.011211C93.3257 0.0727635 97.5038 0.38709 101.543 0.937337L101.274 2.91904ZM76.6308 2.51857C72.6587 2.89392 68.5831 3.47682 64.4068 4.2795L64.0293 2.31545C68.2662 1.50112 72.405 0.908984 76.4426 0.527439L76.6308 2.51857ZM52.3239 7.14755C48.4731 8.23141 44.5462 9.49544 40.5451 10.948L39.8626 9.06808C43.9084 7.59926 47.8822 6.32002 51.782 5.22236L52.3239 7.14755ZM29.0559 15.5561C25.3767 17.1694 21.6405 18.9379 17.8488 20.8676L16.9417 19.0851C20.7665 17.1386 24.5373 15.3536 28.2527 13.7244L29.0559 15.5561ZM6.93503 26.7843C5.14105 27.8158 3.33562 28.8826 1.51886 29.9854L0.48111 28.2757C2.31117 27.1648 4.13022 26.09 5.93811 25.0505L6.93503 26.7843Z" fill="url(#paint0_linear_1_694)"/>
<defs>
<linearGradient id="paint0_linear_1_694" x1="180.128" y1="106.041" x2="82.6552" y2="107.654" gradientUnits="userSpaceOnUse">
<stop stop-color="#E2BA78"/>
<stop offset="0.486276" stop-color="#F2D7AC"/>
<stop offset="1" stop-color="#E0B875"/>
</linearGradient>
</defs>
</svg>
