<svg width="111" height="133" viewBox="0 0 111 133" fill="none" xmlns="http://www.w3.org/2000/svg">
<path d="M109.241 5.59646C109.774 5.73958 110.323 5.42317 110.466 4.88976C110.609 4.35634 110.293 3.8079 109.759 3.66478L109.241 5.59646ZM1.49998 56.6312L2.49439 56.7368L1.49998 56.6312ZM55.8386 132.791L51.7173 122.004L44.4366 130.967L55.8386 132.791ZM51.7463 128.178C51.3107 127.839 50.6823 127.917 50.3429 128.352C50.0035 128.788 50.0815 129.416 50.5172 129.756L51.7463 128.178ZM40.9572 122.159C41.3836 122.51 42.0138 122.449 42.3648 122.023C42.7159 121.596 42.6548 120.966 42.2284 120.615L40.9572 122.159ZM33.0652 112.677C32.658 112.304 32.0255 112.331 31.6523 112.738C31.2791 113.146 31.3066 113.778 31.7138 114.151L33.0652 112.677ZM22.9783 105.58C23.3578 105.981 23.9907 105.999 24.392 105.62C24.7933 105.24 24.8109 104.607 24.4314 104.206L22.9783 105.58ZM16.5424 95.063C16.2033 94.6271 15.575 94.5487 15.1391 94.8879C14.7032 95.227 14.6248 95.8553 14.9639 96.2912L16.5424 95.063ZM8.0412 86.1241C8.31872 86.6016 8.93078 86.7637 9.40827 86.4862C9.88577 86.2087 10.0479 85.5966 9.77036 85.1191L8.0412 86.1241ZM4.72672 74.2726C4.54686 73.7505 3.97774 73.473 3.45557 73.6528C2.93339 73.8327 2.65589 74.4018 2.83576 74.924L4.72672 74.2726ZM0.358609 62.7687C0.390094 63.3201 0.862604 63.7415 1.41399 63.71C1.96538 63.6786 2.38684 63.2061 2.35536 62.6547L0.358609 62.7687ZM3.60552 50.2208C3.73327 49.6835 3.40126 49.1444 2.86396 49.0166C2.32665 48.8889 1.78752 49.2209 1.65976 49.7582L3.60552 50.2208ZM6.56609 36.9929C6.30087 37.4774 6.47857 38.0851 6.96301 38.3503C7.44744 38.6155 8.05515 38.4378 8.32038 37.9534L6.56609 36.9929ZM16.0692 27.3038C16.4462 26.9002 16.4246 26.2674 16.021 25.8904C15.6174 25.5135 14.9846 25.5351 14.6076 25.9387L16.0692 27.3038ZM24.9412 17.0356C24.4885 17.352 24.378 17.9754 24.6944 18.4281C25.0108 18.8808 25.6342 18.9912 26.0869 18.6749L24.9412 17.0356ZM37.5913 12.0537C38.0909 11.8183 38.305 11.2225 38.0696 10.7229C37.8342 10.2233 37.2383 10.0091 36.7387 10.2445L37.5913 12.0537ZM49.4173 5.35426C48.8896 5.5173 48.594 6.07723 48.757 6.6049C48.9201 7.13257 49.48 7.42816 50.0077 7.26512L49.4173 5.35426ZM62.9616 4.13563C63.5053 4.03866 63.8674 3.51929 63.7704 2.97559C63.6735 2.43188 63.1541 2.06973 62.6104 2.16669L62.9616 4.13563ZM76.0807 0.563641C75.5294 0.597251 75.1098 1.07138 75.1434 1.62264C75.177 2.17391 75.6511 2.59354 76.2024 2.55993L76.0807 0.563641ZM89.5364 2.52349C90.0878 2.55473 90.5602 2.13305 90.5914 1.58165C90.6226 1.03025 90.201 0.55793 89.6496 0.526694L89.5364 2.52349ZM103.134 2.15592C102.592 2.05315 102.069 2.40973 101.966 2.95236C101.863 3.495 102.22 4.01821 102.762 4.12099L103.134 2.15592ZM42.2284 120.615C39.35 118.245 36.2381 115.585 33.0652 112.677L31.7138 114.151C34.9186 117.089 38.0582 119.773 40.9572 122.159L42.2284 120.615ZM24.4314 104.206C21.6886 101.306 19.0209 98.2486 16.5424 95.063L14.9639 96.2912C17.4881 99.5354 20.1989 102.641 22.9783 105.58L24.4314 104.206ZM9.77036 85.1191C7.72068 81.5925 5.99913 77.9667 4.72672 74.2726L2.83576 74.924C4.15732 78.7607 5.93769 82.5049 8.0412 86.1241L9.77036 85.1191ZM2.35536 62.6547C2.24324 60.6912 2.28401 58.7173 2.49439 56.7368L0.505573 56.5255C0.283276 58.6184 0.24055 60.7011 0.358609 62.7687L2.35536 62.6547ZM2.49439 56.7368C2.7328 54.4922 3.10631 52.3204 3.60552 50.2208L1.65976 49.7582C1.14064 51.9416 0.752873 54.1973 0.505573 56.5255L2.49439 56.7368ZM8.32038 37.9534C10.4378 34.0858 13.0496 30.5369 16.0692 27.3038L14.6076 25.9387C11.4819 29.2853 8.76926 32.9689 6.56609 36.9929L8.32038 37.9534ZM26.0869 18.6749C29.6548 16.1811 33.5153 13.9745 37.5913 12.0537L36.7387 10.2445C32.5695 12.2092 28.6098 14.4715 24.9412 17.0356L26.0869 18.6749ZM50.0077 7.26512C54.2243 5.9623 58.5651 4.91972 62.9616 4.13563L62.6104 2.16669C58.1367 2.96456 53.7158 4.02611 49.4173 5.35426L50.0077 7.26512ZM76.2024 2.55993C80.6864 2.28654 85.1548 2.27528 89.5364 2.52349L89.6496 0.526694C85.1883 0.273973 80.6415 0.285567 76.0807 0.563641L76.2024 2.55993ZM102.762 4.12099C104.972 4.53954 107.135 5.03156 109.241 5.59646L109.759 3.66478C107.603 3.08639 105.391 2.58338 103.134 2.15592L102.762 4.12099Z" fill="url(#paint0_linear_1_693)"/>
<defs>
<linearGradient id="paint0_linear_1_693" x1="9.21048" y1="85.0411" x2="106.683" y2="86.6545" gradientUnits="userSpaceOnUse">
<stop stop-color="#E2BA78"/>
<stop offset="0.486276" stop-color="#F2D7AC"/>
<stop offset="1" stop-color="#E0B875"/>
</linearGradient>
</defs>
</svg>
